<?xml version="1.0" encoding="utf-8"?>
<!-- Generator: Adobe Illustrator 22.0.0, SVG Export Plug-In . SVG Version: 6.00 Build 0)  -->
<!DOCTYPE svg PUBLIC "-//W3C//DTD SVG 1.1//EN" "http://www.w3.org/Graphics/SVG/1.1/DTD/svg11.dtd">
<svg version="1.1" xmlns="http://www.w3.org/2000/svg" xmlns:xlink="http://www.w3.org/1999/xlink" x="0px" y="0px"
	 viewBox="0 0 99.1 107.6" style="enable-background:new 0 0 99.1 107.6;" xml:space="preserve">
<style type="text/css">
	.st0{fill:none;stroke:#FFFFFF;stroke-width:0.5;stroke-miterlimit:10;}
	.st1{fill:none;stroke:#FFFFFF;stroke-width:0.503;stroke-linecap:round;stroke-linejoin:round;stroke-miterlimit:22.926;}
	.st2{fill:none;stroke:#FFFDFD;stroke-width:0.5;stroke-linecap:round;stroke-miterlimit:10;}
</style>
<g id="Layer_1">
	<g>
		<g>
			<path class="st0" d="M6.1,45.8c0,14.4,29.4,9.4,29.4,28c0,7-6.9,14.5-17.6,14.5c-11.8,0-18.5-7.7-17.7-15.7
				c0.4-4.3,5.8-4.1,4.5,0.2C2.8,79.1,6.9,87.7,18,87.7c7.9,0,14.4-5.2,14.4-11.4c0-17.5-29.2-11.1-29.2-28.2
				c0-7.6,7.1-12.6,15.1-12.6c10.2,0,15.7,6.1,15.4,12c-0.3,4.3-5.2,3.8-4.1-0.1c1.4-4.8-1.2-11.3-11.3-11.3
				C10,36.1,6.1,41,6.1,45.8"/>
			<path class="st0" d="M43.5,37.7c1.4,0,2.5,1,2.5,2.5c0,1.4-1,2.5-2.5,2.5s-2.5-1-2.5-2.5C41.1,38.8,42.1,37.7,43.5,37.7
				 M40.3,54.4h-2.2c-0.1,0-0.2-0.1-0.2-0.2S38,54,38.1,54h8.4c0.1,0,0.2,0.1,0.2,0.2s-0.1,0.2-0.2,0.2h-1.1v29.2
				c0,1.2,0.7,2.6,2.2,2.6c1.3,0,2.1-0.9,2.1-2.2c0-0.3,0.4-0.3,0.4,0c0,2.3-1.7,3.2-4,3.2c-2.9,0-4.5-2.1-4.5-5.3V56.3
				C41.7,55.3,41.2,54.6,40.3,54.4"/>
			<path class="st0" d="M54,35.1h-3c-0.1,0-0.2-0.1-0.2-0.2s0.1-0.2,0.2-0.2h9.2c0.1,0,0.2,0.1,0.2,0.2s-0.1,0.2-0.2,0.2h-1.1v48.1
				c0,1.4,0.7,3,2.6,3c1.3,0,2.5-0.7,2.5-2.2c0-0.3,0.4-0.3,0.4,0c0,2.1-1.5,3.2-4,3.2c-3.1,0-5.2-1.9-5.2-5.3v-45
				C55.4,36,54.9,35.1,54,35.1"/>
			<path class="st0" d="M91.4,86.4l-16.7-19l11.8-9.7c1.7-1.4,0.4-3.2-1.2-3.2h-0.2c-0.4,0-0.4-0.4,0-0.4h11.5c0.4,0,0.4,0.4,0,0.4
				h-0.7c-3,0-6.7,1.6-8.4,3l-9.7,8.2l18.5,20.9h2.3c0.3,0,0.3,0.4,0,0.4h-10c-0.4,0-0.4-0.4,0-0.4h2.8L91.4,86.4L91.4,86.4z
				 M65.5,34.6h9.2c0.1,0,0.2,0.1,0.2,0.2S74.8,35,74.7,35h-1.1v50.6c0,0.5,0.2,0.7,0.7,0.7h1.6c0.4,0,0.4,0.4,0,0.4h-8.5
				c-0.3,0-0.3-0.4,0-0.4h1.7c0.5,0,0.7-0.2,0.7-0.7V36.9c0-0.9-0.5-1.7-1.4-1.9h-3c-0.1,0-0.2-0.1-0.2-0.2S65.5,34.6,65.5,34.6"/>
		</g>
		<g>
			<path class="st1" d="M79.2,102.7h12.7 M8.9,102.7h12.7 M45.9,10.9c-1.5-0.9-4.3-3-5-3.7c-1.7-1.5-2.5-3.2-1.9-3.8
				c0.6-0.6,2.3,0.4,3.8,1.9c0.6,0.6,2.7,3.4,3.6,5 M45.5,11.4c-2-0.4-5.5-2-6.1-2.7c-1.7-1.4-1.9-3.8-0.4-5.3
				C40.6,1.9,43,2,44.4,3.8c0.6,0.8,2.4,4.1,2.7,6.1 M50.9,16c0,0.3,5.3,5.8,5.8,6.5c0.5,0.6,1.4,1.7,2.2,0.8
				c0.8-0.8-0.3-1.7-0.9-2.2c-0.6-0.5-6.2-5.8-6.5-5.8 M40.3,17.4l3.9,3.9 M53,5L57,9 M56.8,9.8L45.3,21.3c-0.3,0.3-0.8,0.3-1.1,0
				c-2.5-2.5-2,0.8-3.4,2c-0.6,0.6-1.7,0.6-2.3,0c-0.6-0.6-0.6-1.7,0-2.3c1.4-1.4,4.7-0.9,2-3.4c-0.3-0.3-0.3-0.8,0-1.1L52,4.9
				c0.3-0.3,0.8-0.3,1.1,0c2.5,2.5,2-0.8,3.4-2c0.6-0.6,1.7-0.6,2.3,0s0.6,1.7,0,2.3c-1.4,1.4-4.7,0.9-2,3.4
				C57.1,9,57.1,9.5,56.8,9.8z"/>
		</g>
	</g>
	<polyline class="st2" points="42.3,106.6 46,98.4 49.6,106.6 	"/>
	<line class="st2" x1="43.7" y1="103.7" x2="48" y2="103.7"/>
	<line class="st2" x1="53.5" y1="97.6" x2="53.5" y2="106.6"/>
	<line class="st2" x1="58.5" y1="97.6" x2="53.6" y2="102.5"/>
	<line class="st2" x1="54.4" y1="102.1" x2="58.6" y2="106.7"/>
	<line class="st2" x1="66.9" y1="98.1" x2="62.8" y2="98.1"/>
	<line class="st2" x1="66.9" y1="101.8" x2="62.8" y2="101.8"/>
	<line class="st2" x1="66.9" y1="106.6" x2="62.8" y2="106.6"/>
	<line class="st2" x1="62.7" y1="98.1" x2="62.7" y2="106.6"/>
	<path class="st2" d="M39,99.1c-0.7-0.6-1.7-1-2.7-1c-2.3,0-4.3,1.9-4.3,4.2c-0.1,2.3,1.8,4.2,4.1,4.2c1.1,0,2-0.4,2.8-1"/>
</g>
<g id="Layer_2">
</g>
</svg>
