<!--?xml version="1.0" encoding="utf-8"?-->
<!-- Generator: Adobe Illustrator 22.0.1, SVG Export Plug-In . SVG Version: 6.00 Build 0)  -->

<svg version="1.1" id="Layer_1" xmlns="http://www.w3.org/2000/svg" xmlns:xlink="http://www.w3.org/1999/xlink" x="0px" y="0px" viewBox="0 0 99.1 107.6" style="" xml:space="preserve">
<style type="text/css">
	.st0{fill:none;stroke:#FFFFFF;stroke-width:0.5;stroke-miterlimit:10;}
	.st1{fill:none;stroke:#FFFFFF;stroke-width:0.503;stroke-linecap:round;stroke-linejoin:round;stroke-miterlimit:22.926;}
	.st2{fill:none;stroke:#FFFFFF;stroke-width:0.5;stroke-linecap:round;stroke-miterlimit:10;}
</style>
<g id="Layer_2_1_">
</g>
<g>
	<g>
		<path class="st0 tyETAumV_0" d="M6.1,45.7c0,14.4,29.4,9.4,29.4,28c0,7-6.9,14.5-17.6,14.5c-11.8,0-18.5-7.7-17.7-15.7
			c0.4-4.3,5.8-4.1,4.5,0.2C2.8,79,6.9,87.6,18,87.6c7.9,0,14.4-5.2,14.4-11.4C32.4,58.7,3.2,65.1,3.2,48c0-7.6,7.1-12.6,15.1-12.6
			c10.2,0,15.7,6.1,15.4,12c-0.3,4.3-5.2,3.8-4.1-0.1C31,42.5,28.4,36,18.3,36C10,36,6.1,40.9,6.1,45.7"></path>
		<path class="st0 tyETAumV_1" d="M43.5,37.6c1.4,0,2.5,1,2.5,2.5c0,1.4-1,2.5-2.5,2.5s-2.5-1-2.5-2.5C41.1,38.7,42.1,37.6,43.5,37.6
			 M40.3,54.3h-2.2c-0.1,0-0.2-0.1-0.2-0.2s0.1-0.2,0.2-0.2h8.4c0.1,0,0.2,0.1,0.2,0.2s-0.1,0.2-0.2,0.2h-1.1v29.2
			c0,1.2,0.7,2.6,2.2,2.6c1.3,0,2.1-0.9,2.1-2.2c0-0.3,0.4-0.3,0.4,0c0,2.3-1.7,3.2-4,3.2c-2.9,0-4.5-2.1-4.5-5.3V56.2
			C41.7,55.2,41.2,54.5,40.3,54.3"></path>
		<path class="st0 tyETAumV_2" d="M54,35h-3c-0.1,0-0.2-0.1-0.2-0.2s0.1-0.2,0.2-0.2h9.2c0.1,0,0.2,0.1,0.2,0.2S60.3,35,60.2,35h-1.1v48.1
			c0,1.4,0.7,3,2.6,3c1.3,0,2.5-0.7,2.5-2.2c0-0.3,0.4-0.3,0.4,0c0,2.1-1.5,3.2-4,3.2c-3.1,0-5.2-1.9-5.2-5.3v-45
			C55.4,35.9,54.9,35,54,35"></path>
		<path class="st0 tyETAumV_3" d="M91.4,86.3l-16.7-19l11.8-9.7c1.7-1.4,0.4-3.2-1.2-3.2h-0.2c-0.4,0-0.4-0.4,0-0.4h11.5c0.4,0,0.4,0.4,0,0.4
			h-0.7c-3,0-6.7,1.6-8.4,3l-9.7,8.2l18.5,20.9h2.3c0.3,0,0.3,0.4,0,0.4h-10c-0.4,0-0.4-0.4,0-0.4h2.8L91.4,86.3L91.4,86.3z
			 M65.5,34.5h9.2c0.1,0,0.2,0.1,0.2,0.2s-0.1,0.2-0.2,0.2h-1.1v50.6c0,0.5,0.2,0.7,0.7,0.7h1.6c0.4,0,0.4,0.4,0,0.4h-8.5
			c-0.3,0-0.3-0.4,0-0.4h1.7c0.5,0,0.7-0.2,0.7-0.7V36.8c0-0.9-0.5-1.7-1.4-1.9h-3c-0.1,0-0.2-0.1-0.2-0.2S65.5,34.5,65.5,34.5"></path>
	</g>
	<g>
		<path class="st1 tyETAumV_4" d="M77.2,102.6h12.7 M8.9,102.6h12.7 M45.9,10.8c-1.5-0.9-4.3-3-5-3.7c-1.7-1.5-2.5-3.2-1.9-3.8s2.3,0.4,3.8,1.9
			c0.6,0.6,2.7,3.4,3.6,5 M45.5,11.3c-2-0.4-5.5-2-6.1-2.7c-1.7-1.4-1.9-3.8-0.4-5.3c1.6-1.5,4-1.4,5.4,0.4c0.6,0.8,2.4,4.1,2.7,6.1
			 M50.9,15.9c0,0.3,5.3,5.8,5.8,6.5c0.5,0.6,1.4,1.7,2.2,0.8c0.8-0.8-0.3-1.7-0.9-2.2c-0.6-0.5-6.2-5.8-6.5-5.8 M40.3,17.3l3.9,3.9
			 M53,4.9l4,4 M56.8,9.7L45.3,21.2c-0.3,0.3-0.8,0.3-1.1,0c-2.5-2.5-2,0.8-3.4,2c-0.6,0.6-1.7,0.6-2.3,0s-0.6-1.7,0-2.3
			c1.4-1.4,4.7-0.9,2-3.4c-0.3-0.3-0.3-0.8,0-1.1L52,4.8c0.3-0.3,0.8-0.3,1.1,0c2.5,2.5,2-0.8,3.4-2c0.6-0.6,1.7-0.6,2.3,0
			s0.6,1.7,0,2.3c-1.4,1.4-4.7,0.9-2,3.4C57.1,8.9,57.1,9.4,56.8,9.7z"></path>
	</g>
</g>
<g id="Layer_2_2_">
</g>
<g>
	<path class="st2 tyETAumV_5" d="M38.1,106.5L41.8,98.3L45.4,106.5"></path>
	<path class="st2 tyETAumV_6" d="M39.5,103.6L43.8,103.6"></path>
	<path class="st2 tyETAumV_7" d="M49.3,97.5L49.3,106.5"></path>
	<path class="st2 tyETAumV_8" d="M54.3,97.5L49.4,102.4"></path>
	<path class="st2 tyETAumV_9" d="M50.2,102L54.4,106.6"></path>
	<path class="st2 tyETAumV_10" d="M62.7,98L58.6,98"></path>
	<path class="st2 tyETAumV_11" d="M62.7,101.7L58.6,101.7"></path>
	<path class="st2 tyETAumV_12" d="M62.7,106.5L58.6,106.5"></path>
	<path class="st2 tyETAumV_13" d="M58.5,98L58.5,106.5"></path>
	<path class="st2 tyETAumV_14" d="M34.8,99c-0.7-0.6-1.7-1-2.7-1c-2.3,0-4.3,1.9-4.3,4.2c-0.1,2.3,1.8,4.2,4.1,4.2c1.1,0,2-0.4,2.8-1"></path>
	<path class="st2 tyETAumV_15" d="M70.7,98.9c0,0-0.8-1.4-2.4-1.1c-1.6,0.4-2.2,2.2-1,3.1c1.3,1,2,1.1,2.8,1.6c0.7,0.4,1.4,1.7,0.6,3.1
		c-1,1.6-3.9,1.3-4.5-0.9"></path>
</g>
<style>.tyETAumV_0{stroke-dasharray:281 283;stroke-dashoffset:282;animation:tyETAumV_draw 2333ms linear 0ms forwards;}.tyETAumV_1{stroke-dasharray:108 110;stroke-dashoffset:109;animation:tyETAumV_draw 2333ms linear 77ms forwards;}.tyETAumV_2{stroke-dasharray:134 136;stroke-dashoffset:135;animation:tyETAumV_draw 2333ms linear 155ms forwards;}.tyETAumV_3{stroke-dasharray:258 260;stroke-dashoffset:259;animation:tyETAumV_draw 2333ms linear 233ms forwards;}.tyETAumV_4{stroke-dasharray:177 179;stroke-dashoffset:178;animation:tyETAumV_draw 2333ms linear 311ms forwards;}.tyETAumV_5{stroke-dasharray:18 20;stroke-dashoffset:19;animation:tyETAumV_draw 2333ms linear 388ms forwards;}.tyETAumV_6{stroke-dasharray:5 7;stroke-dashoffset:6;animation:tyETAumV_draw 2333ms linear 466ms forwards;}.tyETAumV_7{stroke-dasharray:9 11;stroke-dashoffset:10;animation:tyETAumV_draw 2333ms linear 544ms forwards;}.tyETAumV_8{stroke-dasharray:7 9;stroke-dashoffset:8;animation:tyETAumV_draw 2333ms linear 622ms forwards;}.tyETAumV_9{stroke-dasharray:7 9;stroke-dashoffset:8;animation:tyETAumV_draw 2333ms linear 700ms forwards;}.tyETAumV_10{stroke-dasharray:5 7;stroke-dashoffset:6;animation:tyETAumV_draw 2333ms linear 777ms forwards;}.tyETAumV_11{stroke-dasharray:5 7;stroke-dashoffset:6;animation:tyETAumV_draw 2333ms linear 855ms forwards;}.tyETAumV_12{stroke-dasharray:5 7;stroke-dashoffset:6;animation:tyETAumV_draw 2333ms linear 933ms forwards;}.tyETAumV_13{stroke-dasharray:9 11;stroke-dashoffset:10;animation:tyETAumV_draw 2333ms linear 1011ms forwards;}.tyETAumV_14{stroke-dasharray:20 22;stroke-dashoffset:21;animation:tyETAumV_draw 2333ms linear 1088ms forwards;}.tyETAumV_15{stroke-dasharray:20 22;stroke-dashoffset:21;animation:tyETAumV_draw 2333ms linear 1166ms forwards;}@keyframes tyETAumV_draw{100%{stroke-dashoffset:0;}}@keyframes tyETAumV_fade{0%{stroke-opacity:1;}94.8051948051948%{stroke-opacity:1;}100%{stroke-opacity:0;}}</style></svg>
