<?xml version="1.0" encoding="utf-8"?>
<!-- Generator: Adobe Illustrator 22.0.0, SVG Export Plug-In . SVG Version: 6.00 Build 0)  -->
<svg version="1.1" id="Layer_1" xmlns="http://www.w3.org/2000/svg" xmlns:xlink="http://www.w3.org/1999/xlink" x="0px" y="0px"
	 viewBox="0 0 250.5 168" style="enable-background:new 0 0 250.5 168;" xml:space="preserve">
<style type="text/css">
	.st0{clip-path:url(#SVGID_2_);fill:none;stroke:#6BC2B8;stroke-width:3;stroke-miterlimit:10;}
	.st1{fill:none;stroke:#241F21;stroke-width:3;stroke-miterlimit:10;}
	.st2{fill:none;stroke:#241F21;stroke-width:3;stroke-miterlimit:10;stroke-dasharray:4.015,4.015;}
	.st3{fill:none;stroke:#241F21;stroke-width:3;stroke-miterlimit:10;stroke-dasharray:4.102,4.102;}
	.st4{fill:none;stroke:#241F21;stroke-width:3;stroke-miterlimit:10;stroke-dasharray:4.281,4.281;}
	.st5{clip-path:url(#SVGID_4_);fill:none;stroke:#241F21;stroke-width:3;stroke-miterlimit:10;stroke-dasharray:3.759,3.759;}
	.st6{clip-path:url(#SVGID_4_);fill:none;stroke:#241F21;stroke-width:3;stroke-miterlimit:10;stroke-dasharray:3.667,3.667;}
	.st7{clip-path:url(#SVGID_4_);fill:none;stroke:#241F21;stroke-width:3;stroke-miterlimit:10;stroke-dasharray:4.629,4.629;}
	.st8{clip-path:url(#SVGID_4_);fill:none;stroke:#241F21;stroke-width:3;stroke-miterlimit:10;stroke-dasharray:4.389,4.389;}
	.st9{clip-path:url(#SVGID_4_);fill:none;stroke:#241F21;stroke-width:3;stroke-miterlimit:10;}
	.st10{fill:none;stroke:#241F21;stroke-width:3;stroke-miterlimit:10;stroke-dasharray:4.954,4.954;}
	.st11{fill:none;stroke:#241F21;stroke-width:3;stroke-miterlimit:10;stroke-dasharray:4.051,4.051;}
	.st12{fill:none;stroke:#241F21;stroke-width:3;stroke-miterlimit:10;stroke-dasharray:4.465,4.465;}
	.st13{clip-path:url(#SVGID_6_);fill:none;stroke:#241F21;stroke-width:3;stroke-miterlimit:10;stroke-dasharray:2.983,2.983;}
	.st14{clip-path:url(#SVGID_6_);fill:none;stroke:#241F21;stroke-width:3;stroke-miterlimit:10;stroke-dasharray:3.757,3.757;}
	.st15{clip-path:url(#SVGID_6_);fill:none;stroke:#241F21;stroke-width:3;stroke-miterlimit:10;stroke-dasharray:3.952,3.952;}
	.st16{clip-path:url(#SVGID_6_);fill:none;stroke:#241F21;stroke-width:3;stroke-miterlimit:10;stroke-dasharray:3.601,3.601;}
	.st17{clip-path:url(#SVGID_6_);fill:none;stroke:#241F21;stroke-width:3;stroke-miterlimit:10;}
	.st18{clip-path:url(#SVGID_6_);fill:#241F21;}
</style>
<g>
	<g>
		<defs>
			<rect id="SVGID_1_" x="-0.1" y="-0.3" width="250" height="167.2"/>
		</defs>
		<clipPath id="SVGID_2_">
			<use xlink:href="#SVGID_1_"  style="overflow:visible;"/>
		</clipPath>
		<path class="st0" d="M237.2,23.6c0,0,0.7-21.6-21.6-21.6c-15.5,0-57.6,0-81.8,0h-5.4h-7.1H116c-24.2,0-66.3,0-81.8,0
			C12,2.1,12.7,23.6,12.7,23.6v40.1h0v54.9h224.6V28.2h0V23.6z"/>
	</g>
	<polyline class="st1" points="30.8,65.5 30.8,68.6 30.8,68.6 30.8,71.7 	"/>
	<line class="st2" x1="30.8" y1="77.4" x2="30.8" y2="108.7"/>
	<polyline class="st1" points="30.8,111.6 30.8,114.7 34,114.7 	"/>
	<line class="st3" x1="40.2" y1="114.7" x2="212.8" y2="114.7"/>
	<polyline class="st1" points="215.9,114.7 219,114.7 219,111.6 	"/>
	<line class="st4" x1="219" y1="105.2" x2="219" y2="45.2"/>
	<polyline class="st1" points="219,42 219,38.9 219,38.9 219,35.8 	"/>
	<g>
		<defs>
			<rect id="SVGID_3_" x="-0.1" y="-0.3" width="250" height="167.2"/>
		</defs>
		<clipPath id="SVGID_4_">
			<use xlink:href="#SVGID_3_"  style="overflow:visible;"/>
		</clipPath>
		<path class="st5" d="M214.3,22c-1.8-1.9-4.2-3.5-7.5-4.3"/>
		<path class="st6" d="M192.4,17c-14.5,0-37.6,0-54.3,0"/>
		<path class="st6" d="M108.9,17c-17.6,0-40.9,0-54.3,0"/>
		<path class="st7" d="M38.6,19.6C35,21.8,33.1,25,32.1,28"/>
		<line class="st8" x1="30.8" y1="45.3" x2="30.8" y2="55.6"/>
		<path class="st9" d="M30.8,59v3.4 M31.2,31.5c-0.4,2.1-0.3,3.6-0.3,3.6v3.4 M51.8,17c-1,0-2,0-2.9,0c-1.3,0-2.5,0.1-3.6,0.2
			 M135.3,17c-1,0-1.9,0-2.9,0h-4.5H122h-4.5c-0.9,0-1.9,0-2.9,0 M203.9,17.1C203,17,202,17,201,17c-0.9,0-1.8,0-2.9,0 M218.3,29.7
			c-0.2-0.9-0.5-1.8-0.9-2.8"/>
	</g>
	<polyline class="st1" points="44.6,74 44.6,77.1 44.6,77.1 44.6,80.2 	"/>
	<line class="st10" x1="44.6" y1="86.8" x2="44.6" y2="110"/>
	<polyline class="st1" points="44.6,113.3 44.6,116.4 47.7,116.4 	"/>
	<line class="st11" x1="53.9" y1="116.4" x2="199.1" y2="116.4"/>
	<polyline class="st1" points="202.2,116.4 205.3,116.4 205.3,113.3 	"/>
	<line class="st12" x1="205.3" y1="106.8" x2="205.3" y2="58.1"/>
	<polyline class="st1" points="205.3,54.8 205.3,51.7 205.3,51.7 205.3,48.6 	"/>
	<g>
		<defs>
			<rect id="SVGID_5_" x="-0.1" y="-0.3" width="250" height="167.2"/>
		</defs>
		<clipPath id="SVGID_6_">
			<use xlink:href="#SVGID_5_"  style="overflow:visible;"/>
		</clipPath>
		<path class="st13" d="M200.6,36.7c-1.5-1.4-3.5-2.5-6.1-3.2"/>
		<path class="st14" d="M181.1,33c-12.1,0-30.3,0-43.9,0"/>
		<path class="st14" d="M109.8,33c-14.4,0-32.7,0-43.9,0"/>
		<path class="st15" d="M51.2,35.2c-3,1.9-4.7,4.6-5.5,7.2"/>
		<line class="st16" x1="44.6" y1="56.8" x2="44.6" y2="65.3"/>
		<path class="st17" d="M44.6,68.1v2.8 M44.9,45.4c-0.3,1.8-0.3,3.1-0.3,3.1v2.8 M63,33c-1.1,0-2.1,0-2.9,0c-1.1,0-2.1,0.1-3.1,0.2
			 M134.2,33c-1,0-2,0-2.9,0h-3.8h-5.1h-3.8c-0.9,0-1.9,0-2.9,0 M192.2,33.1c-0.7-0.1-1.5-0.1-2.3-0.1c-0.9,0-1.8,0-2.9,0
			 M204.3,42.5c-0.2-0.7-0.5-1.4-0.9-2.1"/>
		<path class="st18" d="M229.7,110.5h-94.9h-6H121h-6H20.2c-24.7,0-19.8,16.7-19.8,16.7H94c0,0,0,0,0,0c0,0,14.3,0.2,19.2,5.4
			c2.3,2.6,4.1,6.4,4.1,11.6c0,13.3-19,11.4-19,19v3.7h26.6h26.6v-3.7c0-7.6-19-5.7-19-19c0-5.2,1.9-9,4.1-11.6
			c4.9-5.2,19.2-5.4,19.2-5.4c0,0,0,0,0,0h93.7C249.6,127.2,254.4,110.5,229.7,110.5"/>
	</g>
</g>
</svg>
