<?xml version="1.0" encoding="utf-8"?>
<!-- Generator: Adobe Illustrator 22.0.0, SVG Export Plug-In . SVG Version: 6.00 Build 0)  -->
<svg version="1.1" id="Layer_1" xmlns="http://www.w3.org/2000/svg" xmlns:xlink="http://www.w3.org/1999/xlink" x="0px" y="0px"
	 viewBox="0 0 250.5 168" style="enable-background:new 0 0 250.5 168;" xml:space="preserve">
<style type="text/css">
	.st0{clip-path:url(#SVGID_2_);fill:none;stroke:#6BC2B8;stroke-width:3;stroke-miterlimit:10;}
	.st1{fill:none;stroke:#241F21;stroke-width:3;stroke-miterlimit:10;}
	.st2{fill:none;stroke:#241F21;stroke-width:3;stroke-miterlimit:10;stroke-dasharray:4.015,4.015;}
	.st3{fill:none;stroke:#241F21;stroke-width:3;stroke-miterlimit:10;stroke-dasharray:4.102,4.102;}
	.st4{fill:none;stroke:#241F21;stroke-width:3;stroke-miterlimit:10;stroke-dasharray:4.281,4.281;}
	.st5{clip-path:url(#SVGID_4_);fill:none;stroke:#241F21;stroke-width:3;stroke-miterlimit:10;stroke-dasharray:3.759,3.759;}
	.st6{clip-path:url(#SVGID_4_);fill:none;stroke:#241F21;stroke-width:3;stroke-miterlimit:10;stroke-dasharray:3.667,3.667;}
	.st7{clip-path:url(#SVGID_4_);fill:none;stroke:#241F21;stroke-width:3;stroke-miterlimit:10;stroke-dasharray:4.629,4.629;}
	.st8{clip-path:url(#SVGID_4_);fill:none;stroke:#241F21;stroke-width:3;stroke-miterlimit:10;stroke-dasharray:4.389,4.389;}
	.st9{clip-path:url(#SVGID_4_);fill:none;stroke:#241F21;stroke-width:3;stroke-miterlimit:10;}
	.st10{fill:none;stroke:#241F21;stroke-width:3;stroke-miterlimit:10;stroke-dasharray:4.954,4.954;}
	.st11{fill:none;stroke:#241F21;stroke-width:3;stroke-miterlimit:10;stroke-dasharray:4.051,4.051;}
	.st12{fill:none;stroke:#241F21;stroke-width:3;stroke-miterlimit:10;stroke-dasharray:4.465,4.465;}
	.st13{clip-path:url(#SVGID_6_);fill:none;stroke:#241F21;stroke-width:3;stroke-miterlimit:10;stroke-dasharray:2.983,2.983;}
	.st14{clip-path:url(#SVGID_6_);fill:none;stroke:#241F21;stroke-width:3;stroke-miterlimit:10;stroke-dasharray:3.757,3.757;}
	.st15{clip-path:url(#SVGID_6_);fill:none;stroke:#241F21;stroke-width:3;stroke-miterlimit:10;stroke-dasharray:3.952,3.952;}
	.st16{clip-path:url(#SVGID_6_);fill:none;stroke:#241F21;stroke-width:3;stroke-miterlimit:10;stroke-dasharray:3.601,3.601;}
	.st17{clip-path:url(#SVGID_6_);fill:none;stroke:#241F21;stroke-width:3;stroke-miterlimit:10;}
	.st18{clip-path:url(#SVGID_6_);fill:#241F21;}
	.st19{clip-path:url(#SVGID_8_);fill:#6BC2B8;}
	.st20{clip-path:url(#SVGID_8_);fill:#241F21;}
</style>
<g>
	<g>
		<defs>
			<rect id="SVGID_1_" x="324.3" y="-0.3" width="250" height="167.2"/>
		</defs>
		<clipPath id="SVGID_2_">
			<use xlink:href="#SVGID_1_"  style="overflow:visible;"/>
		</clipPath>
		<path class="st0" d="M561.6,23.6c0,0,0.7-21.6-21.6-21.6c-15.5,0-57.6,0-81.8,0h-5.4h-7.1h-5.4c-24.2,0-66.3,0-81.8,0
			c-22.3,0-21.6,21.6-21.6,21.6v40.1h0v54.9h224.6V28.2h0V23.6z"/>
	</g>
	<polyline class="st1" points="355.2,65.5 355.2,68.6 355.2,68.6 355.2,71.7 	"/>
	<line class="st2" x1="355.2" y1="77.4" x2="355.2" y2="108.7"/>
	<polyline class="st1" points="355.2,111.6 355.2,114.7 358.3,114.7 	"/>
	<line class="st3" x1="364.6" y1="114.7" x2="537.2" y2="114.7"/>
	<polyline class="st1" points="540.3,114.7 543.4,114.7 543.4,111.6 	"/>
	<line class="st4" x1="543.4" y1="105.2" x2="543.4" y2="45.2"/>
	<polyline class="st1" points="543.4,42 543.4,38.9 543.4,38.9 543.4,35.8 	"/>
	<g>
		<defs>
			<rect id="SVGID_3_" x="324.3" y="-0.3" width="250" height="167.2"/>
		</defs>
		<clipPath id="SVGID_4_">
			<use xlink:href="#SVGID_3_"  style="overflow:visible;"/>
		</clipPath>
		<path class="st5" d="M538.6,22c-1.8-1.9-4.2-3.5-7.5-4.3"/>
		<path class="st6" d="M516.8,17c-14.5,0-37.6,0-54.3,0"/>
		<path class="st6" d="M433.3,17c-17.6,0-40.9,0-54.3,0"/>
		<path class="st7" d="M362.9,19.6c-3.5,2.2-5.5,5.4-6.5,8.4"/>
		<line class="st8" x1="355.2" y1="45.3" x2="355.2" y2="55.6"/>
		<path class="st9" d="M355.2,59v3.4 M355.5,31.5c-0.4,2.1-0.3,3.6-0.3,3.6v3.4 M376.1,17c-1,0-2,0-2.9,0c-1.3,0-2.5,0.1-3.6,0.2
			 M459.6,17c-1,0-1.9,0-2.9,0h-4.5h-5.9h-4.5c-0.9,0-1.9,0-2.9,0 M528.3,17.1c-0.9-0.1-1.9-0.2-2.9-0.2c-0.9,0-1.8,0-2.9,0
			 M542.7,29.7c-0.2-0.9-0.5-1.8-0.9-2.8"/>
	</g>
	<polyline class="st1" points="369,74 369,77.1 369,77.1 369,80.2 	"/>
	<line class="st10" x1="369" y1="86.8" x2="369" y2="110"/>
	<polyline class="st1" points="369,113.3 369,116.4 372.1,116.4 	"/>
	<line class="st11" x1="378.3" y1="116.4" x2="523.4" y2="116.4"/>
	<polyline class="st1" points="526.5,116.4 529.7,116.4 529.7,113.3 	"/>
	<line class="st12" x1="529.7" y1="106.8" x2="529.7" y2="58.1"/>
	<polyline class="st1" points="529.7,54.8 529.7,51.7 529.7,51.7 529.7,48.6 	"/>
	<g>
		<defs>
			<rect id="SVGID_5_" x="324.3" y="-0.3" width="250" height="167.2"/>
		</defs>
		<clipPath id="SVGID_6_">
			<use xlink:href="#SVGID_5_"  style="overflow:visible;"/>
		</clipPath>
		<path class="st13" d="M525,36.7c-1.5-1.4-3.5-2.5-6.1-3.2"/>
		<path class="st14" d="M505.4,33c-12.1,0-30.3,0-43.9,0"/>
		<path class="st14" d="M434.2,33c-14.4,0-32.7,0-43.9,0"/>
		<path class="st15" d="M375.5,35.2c-3,1.9-4.7,4.6-5.5,7.2"/>
		<line class="st16" x1="369" y1="56.8" x2="369" y2="65.3"/>
		<path class="st17" d="M369,68.1v2.8 M369.2,45.4c-0.3,1.8-0.3,3.1-0.3,3.1v2.8 M387.3,33c-1.1,0-2.1,0-2.9,0
			c-1.1,0-2.1,0.1-3.1,0.2 M458.6,33c-1,0-2,0-2.9,0h-3.8h-5.1h-3.8c-0.9,0-1.9,0-2.9,0 M516.6,33.1c-0.7-0.1-1.5-0.1-2.3-0.1
			c-0.9,0-1.8,0-2.9,0 M528.7,42.5c-0.2-0.7-0.5-1.4-0.9-2.1"/>
		<path class="st18" d="M554.1,110.5h-94.9h-6h-7.8h-6h-94.9c-24.7,0-19.8,16.7-19.8,16.7h93.7c0,0,0,0,0,0c0,0,14.3,0.2,19.2,5.4
			c2.3,2.6,4.1,6.4,4.1,11.6c0,13.3-19,11.4-19,19v3.7h26.6h26.6v-3.7c0-7.6-19-5.7-19-19c0-5.2,1.9-9,4.1-11.6
			c4.9-5.2,19.2-5.4,19.2-5.4c0,0,0,0,0,0h93.7C573.9,127.2,578.8,110.5,554.1,110.5"/>
	</g>
</g>
<g>
	<g>
		<defs>
			<rect id="SVGID_7_" x="0.1" y="2.8" width="250" height="164.8"/>
		</defs>
		<clipPath id="SVGID_8_">
			<use xlink:href="#SVGID_7_"  style="overflow:visible;"/>
		</clipPath>
		<path class="st19" d="M237.4,24.4c0,0,0.7-21.6-21.6-21.6c-15.5,0-57.6,0-81.8,0h-5.4h-7.1h-5.4c-24.2,0-66.3,0-81.8,0
			c-22.3,0-21.6,21.6-21.6,21.6v40.1h0v54.9h224.6V29h0V24.4z"/>
		<path class="st20" d="M229.9,111.3H135h-6h-7.8h-6H20.3c-24.7,0-19.8,16.7-19.8,16.7h93.7c0,0,0,0,0,0c0,0,14.3,0.2,19.2,5.4
			c2.3,2.6,4.1,6.4,4.1,11.6c0,13.3-19,11.4-19,19v3.7h26.6h26.6v-3.7c0-7.6-19-5.7-19-19c0-5.2,1.9-9,4.1-11.6
			c4.9-5.2,19.2-5.4,19.2-5.4c0,0,0,0,0,0h93.7C249.7,127.9,254.6,111.3,229.9,111.3"/>
	</g>
</g>
</svg>
