<?xml version="1.0" encoding="utf-8"?>
<!-- Generator: Adobe Illustrator 22.0.0, SVG Export Plug-In . SVG Version: 6.00 Build 0)  -->
<svg version="1.1" id="Layer_1" xmlns="http://www.w3.org/2000/svg" xmlns:xlink="http://www.w3.org/1999/xlink" x="0px" y="0px"
	 viewBox="0 0 250.5 168" style="enable-background:new 0 0 250.5 168;" xml:space="preserve">
<style type="text/css">
	.st0{fill:none;stroke:#FFFFFF;}
	.st1{clip-path:url(#SVGID_2_);fill:#6BC1B7;}
	.st2{clip-path:url(#SVGID_2_);fill:#FFFFFF;}
	.st3{clip-path:url(#SVGID_2_);fill:none;stroke:#231F20;stroke-miterlimit:10;}
	.st4{clip-path:url(#SVGID_2_);fill:#241F21;}
</style>
<g>
	<line class="st0" x1="116.4" y1="92.6" x2="130" y2="92.6"/>
	<line class="st0" x1="123.2" y1="85.8" x2="123.2" y2="99.4"/>
	<g>
		<defs>
			<rect id="SVGID_1_" x="0.5" y="-0.6" width="250" height="169.7"/>
		</defs>
		<clipPath id="SVGID_2_">
			<use xlink:href="#SVGID_1_"  style="overflow:visible;"/>
		</clipPath>
		<path class="st1" d="M243.5,64.9v-38h0V22c0,0,0.7-22.7-22.7-22.7h-86h-5.6h-7.4h-5.6h-86C6.8-0.6,7.5,22,7.5,22v42.1h0v11.7
			l228-10.2c0.2,2,1.9,3.5,4,3.5c2.2,0,4-1.8,4-4C243.5,65.1,243.5,65,243.5,64.9"/>
		<path class="st2" d="M237.8,25.8c0,0,0.7-21.6-21.6-21.6c-15.5,0-57.6,0-81.8,0H129H122h-5.4c-24.2,0-66.3,0-81.8,0
			c-22.3,0-21.6,21.6-21.6,21.6v40.1h0v54.9h224.6V30.4h0V25.8z"/>
		<path class="st3" d="M237.8,25.8c0,0,0.7-21.6-21.6-21.6c-15.5,0-57.6,0-81.8,0H129H122h-5.4c-24.2,0-66.3,0-81.8,0
			c-22.3,0-21.6,21.6-21.6,21.6v40.1h0v54.9h224.6V30.4h0V25.8z"/>
		<path class="st4" d="M230.3,112.7h-94.9h-6h-7.8h-6H20.7c-24.7,0-19.8,16.7-19.8,16.7h93.7c0,0,0,0,0,0c0,0,14.3,0.2,19.2,5.4
			c2.3,2.6,4.1,6.4,4.1,11.6c0,13.3-19,11.4-19,19v3.7h26.6h26.6v-3.7c0-7.6-19-5.7-19-19c0-5.2,1.9-9,4.1-11.6
			c4.9-5.2,19.2-5.4,19.2-5.4c0,0,0,0,0,0h93.7C250.1,129.4,255,112.7,230.3,112.7"/>
		<path class="st1" d="M239.8,16.5c-2.4-4.5-4.8-9-7.2-13.6c-20.9-0.9-41.8-1.8-62.6-2.9C121.9,0.6,73.8,1.2,25.8,1.5
			c-4.3,3.6-8.6,7-12.9,10.4c-1.2,10.9-2.4,21.8-3.6,32.5c-0.1,9.6-0.1,19.1-0.2,28.7c-0.9,0.5-1.5,1.5-1.5,2.6c0,1.7,1.3,3,3,3
			c1.5,0,2.7-1,2.9-2.4c0,0,0,0,0,0c0,0,0-0.2,0-0.4c0-0.1,0-0.1,0-0.2c0-0.1,0-0.1,0-0.2c0-2.7,0-11.7,0-16.2
			c0-7.1,4.6-9.9,10.8-9.4c6.3,0.5,11.4,3.4,11.5,11c0.1,5.9,0.2,7.9,0.2,7.9c0,0,0,0,0,0c0.2,2.9,2.5,5.5,5.4,5.8
			c3,0.3,5.4-2.1,5.4-5.3c0-0.1,0-0.2,0-0.3c0-1.7,0.1-10.2,0.1-13c0-3.1-0.2-8.5,3.7-8.3c3.8,0.2,4.1,2.8,4.1,9.3
			c0,2,1.5,3.7,3.4,3.8c1.9,0.1,3.4-1.4,3.4-3.4c0,0,0-0.1,0-0.1h0c0,0,0-0.7,0-3.4c0-2.7,2-8.2,8.1-7.4c6.7,0.9,7.4,6.1,7.2,19.8
			c0,4,3,7.5,6.7,7.7c3.6,0.2,6.6-2.9,6.7-6.9c0,0,0,0,0,0c0,0,0.2-4.8,0.4-8.3c0.3-8.6,3.8-13.5,9.1-14.6c3.7-0.8,7.9,0.8,9.4,7.4
			c0,0,0,0,0,0c0.6,2.3,2.5,4,4.7,4c2.7,0,4.9-2.4,4.9-5.4c0-0.1,0-0.2,0-0.3c0-0.6,0-2.1,0-5.2c0-4.5,3.1-6.2,4.8-5.5
			c3,1.1,3,3.9,3.3,15.6c0,3,2.2,5.5,4.9,5.4c2.6,0,4.7-2.3,4.9-5.1c0,0,0,0,0,0c0-0.1,0-0.2,0-0.3c0,0,0-0.1,0-0.1
			c0-0.2,0-0.4,0-0.6c0-5.4,2.3-9.4,5.7-7.8c3.7,1.7,4.3,9.6,4.5,28.5c0,2.2,1.6,4,3.6,3.9c2-0.1,3.6-1.9,3.6-4.1c0-0.1,0-0.2,0-0.3
			c0,0,0,0,0,0c0,0-0.1-7.5,0.5-13.1c1.1-10.7,10.7-18.1,17.2-18.4c7.3-0.4,16.9,2.6,22.2,18.4c0,0,0,0,0,0c1.6,4.8,5.9,7.9,11,7.5
			c5.8-0.5,10.5-5.4,11.4-11.2c0,0,0,0,0,0c0,0,0.6-5.1,2.9-9c3.7-6.1,18.2-8.4,18.2,9.6c1.2-8.3,2.4-16.5,3.6-24.7
			C240.9,27.7,240.4,22.1,239.8,16.5"/>
	</g>
</g>
</svg>
