<?xml version="1.0" encoding="utf-8"?>
<!-- Generator: Adobe Illustrator 22.0.1, SVG Export Plug-In . SVG Version: 6.00 Build 0)  -->
<!DOCTYPE svg PUBLIC "-//W3C//DTD SVG 1.1//EN" "http://www.w3.org/Graphics/SVG/1.1/DTD/svg11.dtd">
<svg version="1.1" id="Layer_1" xmlns="http://www.w3.org/2000/svg" xmlns:xlink="http://www.w3.org/1999/xlink" x="0px" y="0px"
	 viewBox="0 0 99.1 107.6" style="enable-background:new 0 0 99.1 107.6;" xml:space="preserve">
<style type="text/css">
	.st0{fill:#6BC2B7;}
</style>
<g id="Layer_2_1_">
</g>
<g>
	<g>
		<path class="st0" d="M6.1,45.7c0,14.4,29.4,9.4,29.4,28c0,7-6.9,14.5-17.6,14.5c-11.8,0-18.5-7.7-17.7-15.7
			c0.4-4.3,5.8-4.1,4.5,0.2C2.8,79,6.9,87.6,18,87.6c7.9,0,14.4-5.2,14.4-11.4C32.4,58.7,3.2,65.1,3.2,48c0-7.6,7.1-12.6,15.1-12.6
			c10.2,0,15.7,6.1,15.4,12c-0.3,4.3-5.2,3.8-4.1-0.1C31,42.5,28.4,36,18.3,36C10,36,6.1,40.9,6.1,45.7"/>
		<path class="st0" d="M43.5,37.6c1.4,0,2.5,1,2.5,2.5c0,1.4-1,2.5-2.5,2.5s-2.5-1-2.5-2.5C41.1,38.7,42.1,37.6,43.5,37.6
			 M40.3,54.3h-2.2c-0.1,0-0.2-0.1-0.2-0.2s0.1-0.2,0.2-0.2h8.4c0.1,0,0.2,0.1,0.2,0.2s-0.1,0.2-0.2,0.2h-1.1v29.2
			c0,1.2,0.7,2.6,2.2,2.6c1.3,0,2.1-0.9,2.1-2.2c0-0.3,0.4-0.3,0.4,0c0,2.3-1.7,3.2-4,3.2c-2.9,0-4.5-2.1-4.5-5.3V56.2
			C41.7,55.2,41.2,54.5,40.3,54.3"/>
		<path class="st0" d="M54,35h-3c-0.1,0-0.2-0.1-0.2-0.2s0.1-0.2,0.2-0.2h9.2c0.1,0,0.2,0.1,0.2,0.2S60.3,35,60.2,35h-1.1v48.1
			c0,1.4,0.7,3,2.6,3c1.3,0,2.5-0.7,2.5-2.2c0-0.3,0.4-0.3,0.4,0c0,2.1-1.5,3.2-4,3.2c-3.1,0-5.2-1.9-5.2-5.3v-45
			C55.4,35.9,54.9,35,54,35"/>
		<path class="st0" d="M91.4,86.3l-16.7-19l11.8-9.7c1.7-1.4,0.4-3.2-1.2-3.2h-0.2c-0.4,0-0.4-0.4,0-0.4h11.5c0.4,0,0.4,0.4,0,0.4
			h-0.7c-3,0-6.7,1.6-8.4,3l-9.7,8.2l18.5,20.9h2.3c0.3,0,0.3,0.4,0,0.4h-10c-0.4,0-0.4-0.4,0-0.4h2.8L91.4,86.3L91.4,86.3z
			 M65.5,34.5h9.2c0.1,0,0.2,0.1,0.2,0.2s-0.1,0.2-0.2,0.2h-1.1v50.6c0,0.5,0.2,0.7,0.7,0.7h1.6c0.4,0,0.4,0.4,0,0.4h-8.5
			c-0.3,0-0.3-0.4,0-0.4h1.7c0.5,0,0.7-0.2,0.7-0.7V36.8c0-0.9-0.5-1.7-1.4-1.9h-3c-0.1,0-0.2-0.1-0.2-0.2S65.5,34.5,65.5,34.5"/>
	</g>
</g>
<g id="Layer_2_2_">
</g>
</svg>
