<?xml version="1.0" encoding="utf-8"?>
<!-- Generator: Adobe Illustrator 22.0.0, SVG Export Plug-In . SVG Version: 6.00 Build 0)  -->
<!DOCTYPE svg PUBLIC "-//W3C//DTD SVG 1.1//EN" "http://www.w3.org/Graphics/SVG/1.1/DTD/svg11.dtd">
<svg version="1.1" id="Layer_1" xmlns="http://www.w3.org/2000/svg" xmlns:xlink="http://www.w3.org/1999/xlink" x="0px" y="0px"
	 viewBox="0 0 700 500" style="enable-background:new 0 0 700 500;" xml:space="preserve">
<style type="text/css">
	.st0{fill:#F1F2F2;}
	.st1{fill:#FFFFFF;}
	.st2{fill:#6BC1B7;}
	.st3{fill:#FFFFFF;stroke:#6BC2B8;stroke-width:3;stroke-miterlimit:10;}
	.st4{fill:#6BC2B8;stroke:#6BC2B8;stroke-width:3;stroke-miterlimit:10;}
	.st5{fill:none;stroke:#6BC2B8;stroke-width:3;stroke-miterlimit:10;}
	.st6{fill:none;stroke:#6BC2B8;stroke-width:3;stroke-miterlimit:10;stroke-dasharray:2.0051,2.0051;}
	.st7{fill:none;stroke:#6BC2B8;stroke-width:3;stroke-miterlimit:10;stroke-dasharray:2.0031,2.0031;}
	.st8{fill:none;stroke:#FFFFFF;}
</style>
<g>
	<rect class="st0" width="700" height="500"/>
</g>
<g>
	<g>
		<g>
			<path class="st1" d="M507.9,291.3H378.4h-8.2h-10.6h-8.2H222c-33.7,0-27,22.8-27,22.8h127.7l0,0c0,0,19.5,0.3,26.2,7.4
				c3.1,3.5,5.6,8.7,5.6,15.8c0,18.1-25.9,15.6-25.9,25.9v5h36.3h36.3v-5c0-10.4-25.9-7.8-25.9-25.9c0-7.1,2.6-12.3,5.6-15.8
				c6.7-7.1,26.2-7.4,26.2-7.4l0,0h127.9C535,314.1,541.6,291.3,507.9,291.3"/>
		</g>
	</g>
	<g>
		<g>
			<path class="st3" d="M518.1,225.7c0,0,1-29.5-29.5-29.5c-21.1,0-78.6,0-111.6,0h-7.4H360h-7.2c-33,0-90.5,0-111.6,0
				c-30.3,0.1-29.3,29.5-29.3,29.5v21.7l0,0v45.1h306.5V232l0,0v-6.3H518.1z"/>
		</g>
	</g>
</g>
<line class="st8" x1="351.9" y1="284.9" x2="369.9" y2="284.9"/>
<line class="st8" x1="360.9" y1="278.1" x2="360.9" y2="291.7"/>
<g>
	<path class="st2" d="M520.4,257.2v-38l0,0v-4.9c0,0,0.9-22.7-30.1-22.7h-114h-7.4h-9.8h-7.4h-114c-31,0.1-30.1,22.7-30.1,22.7v42.1
		l0,0v11.7l302.3-10.2c0.3,2,2.5,3.5,5.3,3.5c2.9,0,5.3-1.8,5.3-4C520.4,257.4,520.4,257.3,520.4,257.2"/>
</g>
<g>
	<path class="st1" d="M512.9,218.1c0,0,0.9-21.6-28.6-21.6c-20.6,0-76.4,0-108.5,0h-7.2h-9.3h-7.2c-32.1,0-87.9,0-108.5,0
		c-29.6,0-28.6,21.6-28.6,21.6v40.1l0,0v11.5h297.8v-47l0,0V218.1z"/>
</g>
<path class="st2" d="M515.5,208.8c-3.2-4.5-6.4-9-9.5-13.6c-27.7-0.9-55.4-1.8-83-2.9c-63.8,0.6-127.6,1.2-191.2,1.5
	c-5.7,3.6-11.4,7-17.1,10.4c-1.6,10.9-3.2,21.8-4.8,32.5c-0.1,9.6-0.1,19.1-0.3,28.7c-1.2,0.5-2,1.5-2,2.6c0,1.7,1.7,3,4,3
	c2,0,3.6-1,3.8-2.4l0,0c0,0,0-0.2,0-0.4c0-0.1,0-0.1,0-0.2s0-0.1,0-0.2c0-2.7,0-11.7,0-16.2c0-7.1,6.1-9.9,14.3-9.4
	c8.4,0.5,15.1,3.4,15.2,11c0.1,5.9,0.3,7.9,0.3,7.9l0,0c0.3,2.9,3.3,5.5,7.2,5.8c4,0.3,7.2-2.1,7.2-5.3c0-0.1,0-0.2,0-0.3
	c0-1.7,0.1-10.2,0.1-13c0-3.1-0.3-8.5,4.9-8.3c5,0.2,5.4,2.8,5.4,9.3c0,2,2,3.7,4.5,3.8c2.5,0.1,4.5-1.4,4.5-3.4v-0.1l0,0
	c0,0,0-0.7,0-3.4s2.7-8.2,10.7-7.4c8.9,0.9,9.8,6.1,9.5,19.8c0,4,4,7.5,8.9,7.7c4.8,0.2,8.8-2.9,8.9-6.9l0,0c0,0,0.3-4.8,0.5-8.3
	c0.4-8.6,5-13.5,12.1-14.6c4.9-0.8,10.5,0.8,12.5,7.4l0,0c0.8,2.3,3.3,4,6.2,4c3.6,0,6.5-2.4,6.5-5.4c0-0.1,0-0.2,0-0.3
	c0-0.6,0-2.1,0-5.2c0-4.5,4.1-6.2,6.4-5.5c4,1.1,4,3.9,4.4,15.6c0,3,2.9,5.5,6.5,5.4c3.4,0,6.2-2.3,6.5-5.1l0,0c0-0.1,0-0.2,0-0.3
	V247c0-0.2,0-0.4,0-0.6c0-5.4,3-9.4,7.6-7.8c4.9,1.7,5.7,9.6,6,28.5c0,2.2,2.1,4,4.8,3.9c2.7-0.1,4.8-1.9,4.8-4.1c0-0.1,0-0.2,0-0.3
	l0,0c0,0-0.1-7.5,0.7-13.1c1.5-10.7,14.2-18.1,22.8-18.4c9.7-0.4,22.4,2.6,29.4,18.4l0,0c2.1,4.8,7.8,7.9,14.6,7.5
	c7.7-0.5,13.9-5.4,15.1-11.2l0,0c0,0,0.8-5.1,3.8-9c4.9-6.1,24.1-8.4,24.1,9.6c1.6-8.3,3.2-16.5,4.8-24.7
	C517,220,516.3,214.4,515.5,208.8"/>
</svg>
