<?xml version="1.0" encoding="utf-8"?>
<!-- Generator: Adobe Illustrator 22.0.0, SVG Export Plug-In . SVG Version: 6.00 Build 0)  -->
<!DOCTYPE svg PUBLIC "-//W3C//DTD SVG 1.1//EN" "http://www.w3.org/Graphics/SVG/1.1/DTD/svg11.dtd">
<svg version="1.1" id="Layer_1" xmlns="http://www.w3.org/2000/svg" xmlns:xlink="http://www.w3.org/1999/xlink" x="0px" y="0px"
	 viewBox="0 0 700 500" style="enable-background:new 0 0 700 500;" xml:space="preserve">
<style type="text/css">
	.st0{fill:#F1F2F2;}
	.st1{fill:#FFFFFF;}
	.st2{fill:#6BC1B7;}
	.st3{fill:#FFFFFF;stroke:#6BC2B8;stroke-width:3;stroke-miterlimit:10;}
	.st4{fill:#6BC2B8;stroke:#6BC2B8;stroke-width:3;stroke-miterlimit:10;}
	.st5{fill:none;stroke:#6BC2B8;stroke-width:3;stroke-miterlimit:10;}
	.st6{fill:none;stroke:#6BC2B8;stroke-width:3;stroke-miterlimit:10;stroke-dasharray:2.0051,2.0051;}
	.st7{fill:none;stroke:#6BC2B8;stroke-width:3;stroke-miterlimit:10;stroke-dasharray:2.0031,2.0031;}
	.st8{fill:none;stroke:#FFFFFF;}
</style>
<g>
	<rect class="st0" width="700" height="500"/>
</g>
<g>
	<g>
		<g>
			<path class="st1" d="M507.9,291.3H378.4h-8.2h-10.6h-8.2H222c-33.7,0-27,22.8-27,22.8h127.7l0,0c0,0,19.5,0.3,26.2,7.4
				c3.1,3.5,5.6,8.7,5.6,15.8c0,18.1-25.9,15.6-25.9,25.9v5h36.3h36.3v-5c0-10.4-25.9-7.8-25.9-25.9c0-7.1,2.6-12.3,5.6-15.8
				c6.7-7.1,26.2-7.4,26.2-7.4l0,0h127.9C535,314.1,541.6,291.3,507.9,291.3"/>
		</g>
	</g>
	<g>
		<g>
			<path class="st5" d="M518.1,225.7c0,0,1-29.5-29.5-29.5c-21.1,0-78.6,0-111.6,0h-7.4H360h-7.2c-33,0-90.5,0-111.6,0
				c-30.3,0.1-29.3,29.5-29.3,29.5v21.7l0,0v45.1h306.5V232l0,0v-6.3H518.1z"/>
		</g>
	</g>
</g>
<g>
	<g>
		<line class="st5" x1="240.5" y1="290.5" x2="240.5" y2="289.5"/>
		<path class="st6" d="M240.5,287.5v-76c0-8.2,6.8-15,15-15h224c8.2,0,15,6.8,15,15v77"/>
		<line class="st5" x1="494.5" y1="289.5" x2="494.5" y2="290.5"/>
	</g>
</g>
<g>
	<g>
		<line class="st5" x1="259.5" y1="290.5" x2="259.5" y2="289.5"/>
		<path class="st7" d="M259.5,287.5v-76c0-8.2,5.8-15,12.8-15h190.9c7,0,12.8,6.8,12.8,15v77"/>
		<line class="st5" x1="476" y1="289.5" x2="476" y2="290.5"/>
	</g>
</g>
</svg>
