<?xml version="1.0" encoding="utf-8"?>
<!-- Generator: Adobe Illustrator 22.0.0, SVG Export Plug-In . SVG Version: 6.00 Build 0)  -->
<svg version="1.1" id="Layer_1" xmlns="http://www.w3.org/2000/svg" xmlns:xlink="http://www.w3.org/1999/xlink" x="0px" y="0px"
	 viewBox="0 0 99.1 107.6" style="enable-background:new 0 0 99.1 107.6;" xml:space="preserve">
<style type="text/css">
	.st0{fill:#FFFFFF;}
	.st1{fill:none;stroke:#FFFFFF;stroke-width:0.503;stroke-linecap:round;stroke-linejoin:round;stroke-miterlimit:22.926;}
</style>
<g>
	<g>
		<path class="st0" d="M6.1,45.8c0,14.4,29.4,9.4,29.4,28c0,7-6.9,14.5-17.6,14.5c-11.8,0-18.5-7.7-17.7-15.7
			c0.4-4.3,5.8-4.1,4.5,0.2C2.8,79.1,6.9,87.7,18,87.7c7.9,0,14.4-5.2,14.4-11.4c0-17.5-29.2-11.1-29.2-28.2
			c0-7.6,7.1-12.6,15.1-12.6c10.2,0,15.7,6.1,15.4,12c-0.3,4.3-5.2,3.8-4.1-0.1c1.4-4.8-1.2-11.3-11.3-11.3C10,36.1,6.1,41,6.1,45.8
			"/>
		<path class="st0" d="M43.5,37.7c1.4,0,2.5,1,2.5,2.5c0,1.4-1,2.5-2.5,2.5s-2.5-1-2.5-2.5C41.1,38.8,42.1,37.7,43.5,37.7
			 M40.3,54.4h-2.2c-0.1,0-0.2-0.1-0.2-0.2S38,54,38.1,54h8.4c0.1,0,0.2,0.1,0.2,0.2s-0.1,0.2-0.2,0.2h-1.1v29.2
			c0,1.2,0.7,2.6,2.2,2.6c1.3,0,2.1-0.9,2.1-2.2c0-0.3,0.4-0.3,0.4,0c0,2.3-1.7,3.2-4,3.2c-2.9,0-4.5-2.1-4.5-5.3V56.3
			C41.7,55.3,41.2,54.6,40.3,54.4"/>
		<path class="st0" d="M54,35.1h-3c-0.1,0-0.2-0.1-0.2-0.2s0.1-0.2,0.2-0.2h9.2c0.1,0,0.2,0.1,0.2,0.2s-0.1,0.2-0.2,0.2h-1.1v48.1
			c0,1.4,0.7,3,2.6,3c1.3,0,2.5-0.7,2.5-2.2c0-0.3,0.4-0.3,0.4,0c0,2.1-1.5,3.2-4,3.2c-3.1,0-5.2-1.9-5.2-5.3v-45
			C55.4,36,54.9,35.1,54,35.1"/>
		<path class="st0" d="M91.4,86.4l-16.7-19l11.8-9.7c1.7-1.4,0.4-3.2-1.2-3.2h-0.2c-0.4,0-0.4-0.4,0-0.4h11.5c0.4,0,0.4,0.4,0,0.4
			h-0.7c-3,0-6.7,1.6-8.4,3l-9.7,8.2l18.5,20.9h2.3c0.3,0,0.3,0.4,0,0.4h-10c-0.4,0-0.4-0.4,0-0.4h2.8V86.4z M65.5,34.6h9.2
			c0.1,0,0.2,0.1,0.2,0.2S74.8,35,74.7,35h-1.1v50.6c0,0.5,0.2,0.7,0.7,0.7h1.6c0.4,0,0.4,0.4,0,0.4h-8.5c-0.3,0-0.3-0.4,0-0.4h1.7
			c0.5,0,0.7-0.2,0.7-0.7V36.9c0-0.9-0.5-1.7-1.4-1.9h-3c-0.1,0-0.2-0.1-0.2-0.2S65.5,34.6,65.5,34.6"/>
		<path class="st0" d="M39,99.6c-0.7-0.7-1.7-1.2-2.8-1.2c-2,0-3.7,1.8-3.7,3.8s1.6,3.8,3.7,3.8c1,0,2-0.5,2.7-1.2v1.3
			c-0.8,0.6-1.7,0.9-2.7,0.9c-2.6,0-4.7-2.1-4.7-4.7s2.1-4.7,4.7-4.7c1,0,1.9,0.3,2.7,0.9L39,99.6L39,99.6z"/>
	</g>
	<path class="st0" d="M45.9,99.6l1.5,3.6h-3.1L45.9,99.6z M41.8,106.7h1.1l1.1-2.6h3.9l1.1,2.6h1.1L46,97.2L41.8,106.7z"/>
	<polygon class="st0" points="57.8,97.6 54,101.5 54,97.6 53,97.6 53,106.7 54,106.7 54,102.8 54.2,102.5 57.9,106.7 59.3,106.7 
		54.9,101.9 59.2,97.6 	"/>
	<polygon class="st0" points="62.2,97.6 62.2,106.7 66.9,106.7 66.9,105.8 63.2,105.8 63.2,102.2 66.8,102.2 66.8,101.3 63.2,101.3 
		63.2,98.6 66.9,98.6 66.9,97.6 	"/>
	<g>
		<path class="st1" d="M79.2,102.7h12.7 M8.9,102.7h12.7 M46.5,7.7c-1.2-0.7-3.4-2.4-3.9-2.9c-1.3-1.2-2-2.5-1.5-3s1.8,0.3,3,1.5
			c0.5,0.5,2.1,2.7,2.8,3.9 M46.2,8.1c-1.6-0.3-4.3-1.6-4.8-2.1c-1.3-1.1-1.5-3-0.3-4.2s3.1-1.1,4.2,0.3c0.5,0.6,1.9,3.2,2.1,4.8
			 M50.4,11.7c0,0.2,4.2,4.6,4.6,5.1s1.1,1.3,1.7,0.6c0.6-0.6-0.2-1.3-0.7-1.7s-4.9-4.6-5.1-4.6 M42.1,12.8l3.1,3.1 M52.1,3.1
			l3.1,3.1 M55.1,6.8L46,15.9c-0.2,0.2-0.6,0.2-0.9,0c-2-2-1.6,0.6-2.7,1.6c-0.5,0.5-1.3,0.5-1.8,0s-0.5-1.3,0-1.8
			c1.1-1.1,3.7-0.7,1.6-2.7c-0.2-0.2-0.2-0.6,0-0.9L51.3,3c0.2-0.2,0.6-0.2,0.9,0c2,2,1.6-0.6,2.7-1.6c0.5-0.5,1.3-0.5,1.8,0
			s0.5,1.3,0,1.8c-1.1,1.1-3.7,0.7-1.6,2.7C55.3,6.2,55.3,6.6,55.1,6.8z"/>
	</g>
</g>
</svg>
