<?xml version="1.0" encoding="utf-8"?>
<!-- Generator: Adobe Illustrator 22.0.0, SVG Export Plug-In . SVG Version: 6.00 Build 0)  -->
<svg version="1.1" id="Layer_1" xmlns="http://www.w3.org/2000/svg" xmlns:xlink="http://www.w3.org/1999/xlink" x="0px" y="0px"
	 viewBox="0 0 250.5 280.2" style="enable-background:new 0 0 250.5 280.2;" xml:space="preserve">
<style type="text/css">
	.st0{fill:none;stroke:#FFFFFF;}
	.st1{clip-path:url(#SVGID_2_);fill:#FF3B6B;}
	.st2{clip-path:url(#SVGID_2_);fill:#FFA712;}
	.st3{clip-path:url(#SVGID_2_);fill:#FF7812;}
	.st4{clip-path:url(#SVGID_2_);fill:#FFEFFF;}
	.st5{clip-path:url(#SVGID_2_);fill:#FF2454;}
	.st6{clip-path:url(#SVGID_2_);fill:#6BA7C1;}
	.st7{clip-path:url(#SVGID_2_);fill:#ECAF90;}
	.st8{clip-path:url(#SVGID_2_);fill:#3DACA2;}
	.st9{clip-path:url(#SVGID_2_);fill:#F16B66;}
	.st10{clip-path:url(#SVGID_2_);fill:#FFCB52;}
	.st11{clip-path:url(#SVGID_2_);fill:#FFFFFF;}
	.st12{clip-path:url(#SVGID_2_);fill:none;stroke:#000000;stroke-miterlimit:10;}
	.st13{clip-path:url(#SVGID_2_);fill:#241F21;}
	.st14{clip-path:url(#SVGID_2_);fill:#6BC1B7;}
	.st15{clip-path:url(#SVGID_2_);fill:none;stroke:#231F20;stroke-miterlimit:10;}
</style>
<g>
	<line class="st0" x1="115.4" y1="169.6" x2="128.9" y2="169.6"/>
	<line class="st0" x1="122.1" y1="162.8" x2="122.1" y2="176.4"/>
	<g>
		<defs>
			<rect id="SVGID_1_" x="0" y="0.2" width="250" height="279.3"/>
		</defs>
		<clipPath id="SVGID_2_">
			<use xlink:href="#SVGID_1_"  style="overflow:visible;"/>
		</clipPath>
		<path class="st1" d="M120.2,68.1c0,0,0.9-0.5,1.5-1.9c0.5-1.4,1.5,0,2,0.6c0.5,0.6,2.3,0.4,3.1-0.1c0.8-0.5,3.1-0.7,4.6,0.5
			c1.5,1.3,1.8,1.7,1.6,2.5c-0.2,0.8-0.3,5.3,0.6,6.6c0.9,1.3,0,2.6-0.9,2.3c-0.8-0.2-0.7-4-0.7-4l-12,1.4c0,0-0.4,7.1-1.1,7.3
			c-0.7,0.2-1.5-0.2-1-1c0.5-0.9,0.1-7.6-0.3-10.1c-0.4-2.5-0.5-4.7,0.6-4.9C119.1,67.1,119.2,68.4,120.2,68.1"/>
		<path class="st1" d="M131.1,109.6c0.6-8.8,1.2-31.6,1.8-40.4c-0.5-0.7-3.6-1.4-7.5-1.4c-4.3,0-7.7,0.8-7.6,1.6
			c0,0.1,2.1,40.3,2.1,40.3h0c0.1,0.8,2.6,1.4,5.6,1.4c3,0,5.5-0.6,5.6-1.4C131.2,109.7,131.1,109.7,131.1,109.6"/>
		<path class="st2" d="M123.6,46c0,0-8.7,10.4-2.2,16.8c6.5,6.5,13.9-2.9,9.2-9.9c-4.2-6.2-4.7-10.5-4.7-10.5S124.8,44.2,123.6,46"
			/>
		<path class="st3" d="M123,60.6c0,0,1.6,2.7,4.2,1.4c2.7-1.4,1.5-4.5-0.2-7c-1.4-2.1-1.1-2.6-1.1-2.6l-0.9,1.7c0,0-0.5-2.3-0.2-3.9
			C123.9,52,120.7,56.8,123,60.6"/>
		<path class="st4" d="M125.8,69.9c-0.2,0-0.4-0.2-0.5-0.4c0-0.3-1.7-5.3-0.4-10.4c0.1-0.3,0.3-0.4,0.6-0.4c0.3,0.1,0.4,0.3,0.4,0.6
			c-1.2,4.9,0.4,9.9,0.4,10C126.4,69.5,126.2,69.8,125.8,69.9C125.9,69.9,125.9,69.9,125.8,69.9"/>
		<path class="st5" d="M120.6,70.4c0,0,1.7,0.9,2.8,0.7c1.2-0.3,1.9-1.4,3.1-1.8c1.2-0.4,1.6,0.9,3,1.1c1.3,0.2,1.8-0.5,2-1
			c0.2-0.5,1,0.7-0.1,1.5c-1.1,0.8-3.9,0.1-4.3,2.3c-0.4,2.1-0.5,10.6-0.2,11.1c0.3,0.5,0.1,1.4-0.4,1.6c-0.6,0.2-1.5-0.2-0.9-2.1
			c0.5-1.9,0.9-8.9-0.1-10.6c-1-1.8-1.7-1.4-3.1-1.6C120.9,71.3,120,71.2,120.6,70.4"/>
		<path class="st6" d="M193,79.3c-0.2,1.4,0,2.9,0.3,4.1c0.6,2.4,1.9,4.3,3.1,4.5c0.6,0.1,1.1-0.2,1.6-0.9c0.8-1.1,0.3-2.5-0.2-3.4
			C196.9,82,195.1,80.4,193,79.3 M188.3,96.1c-0.1,0-0.2,0-0.3-0.1c-0.4-0.2-10.3-6.2-7.4-13.8c1.6-4.1,4.4-5.2,6.6-5.4
			c1.7-0.1,3.4,0.2,5,0.9c0.4-1.5,1.2-2.9,2.6-4c3.2-2.6,7.7-3.6,11.3-2.4c1.1,0.4,2,0.9,2.8,1.6c0-1,0.2-2,0.5-3
			c1-2.9,3.8-6.4,12-6.5c0.3,0,0.5,0.2,0.5,0.5c0,0.3-0.2,0.5-0.5,0.5c-5.7,0.1-9.4,1.8-10.8,5.2c-0.6,1.5-0.7,3.1-0.6,4.5
			c0.5,0.8,0.9,1.6,1.1,2.6c0.2,0.9,0.3,1.4-0.1,1.7l-0.3,0.2l-0.4-0.2c-0.4-0.3-1.1-1.9-1.3-3.8c-0.9-1.2-2.2-1.9-3.2-2.3
			c-3.2-1.1-7.3-0.2-10.3,2.2c-1.2,1-1.9,2.3-2.3,3.6c2.4,1.2,4.5,3,5.5,4.9c1,1.7,1,3.3,0.2,4.5c-0.9,1.3-2,1.5-2.7,1.3
			c-1.6-0.3-3.2-2.4-4-5.3c-0.4-1.5-0.5-3.2-0.3-4.9c-1.5-0.7-3.2-1-4.7-0.9c-2.6,0.2-4.6,1.8-5.7,4.7c-2.6,6.8,6.9,12.4,6.9,12.5
			c0.2,0.1,0.3,0.5,0.2,0.7C188.7,96,188.5,96.1,188.3,96.1"/>
		<path class="st7" d="M72.1,4.1c-0.1,0.2-0.2,0.4-0.3,0.6C71,6.2,71.4,7.8,72,8.5c0.3,0.4,0.9,0.8,1.8,0.5c0.7-0.2,1.9-0.8,1.6-2
			C75.2,5.9,74,4.8,72.1,4.1 M60.4,13.8c0.5,1.6,1.6,2.8,3.2,3.5c1.6,0.7,2.9,0.5,3.6-0.5c0.8-1,0.8-2.6,0-3.6
			c-1-1.2-2.9-1.3-5.2-0.2C61.4,13.1,60.9,13.4,60.4,13.8 M57.2,26.4c-0.2,0-0.4-0.1-0.5-0.3c0-0.1-3.3-8.1,2.4-12.7
			c-0.2-0.8-0.2-1.8-0.1-2.7c0.4-3.4,3-7.3,7.6-8.1c1.9-0.3,3.6-0.2,5.1,0.3c1.3-1.4,3.9-3,9.1-2.6c0.3,0,0.5,0.3,0.5,0.6
			c0,0.3-0.3,0.5-0.6,0.5c-3.6-0.2-6.4,0.5-8,2c1.9,0.8,3.2,2.1,3.6,3.5c0.4,1.5-0.5,2.7-2.3,3.3c-1.1,0.4-2.1,0.1-2.9-0.8
			c-1.1-1.2-1.2-3.3-0.4-5c0.1-0.1,0.1-0.3,0.2-0.4c-1.2-0.3-2.7-0.4-4.2-0.1c-4.1,0.6-6.3,4.2-6.7,7.2c-0.1,0.7-0.1,1.3,0,1.9
			c0.4-0.3,0.9-0.5,1.5-0.8c4-1.8,5.8-0.2,6.4,0.5c1.1,1.4,1.1,3.5,0,4.9c-1.1,1.4-2.9,1.7-4.9,0.8c-1.8-0.8-3-2.1-3.7-3.8
			c-4.7,4.1-1.9,10.9-1.8,11.2c0.1,0.3,0,0.6-0.3,0.7C57.4,26.4,57.3,26.4,57.2,26.4"/>
		<path class="st8" d="M174.1,20.2c-1.6,0.4-2.9,1.4-3.7,3c-0.8,1.5-0.7,2.8,0.3,3.7c1,0.9,2.6,0.9,3.6,0.2c1.3-0.9,1.5-2.8,0.5-5.2
			C174.7,21.3,174.5,20.7,174.1,20.2 M180.6,31.6c-0.7,0-1.4,0.2-1.8,0.6c-0.4,0.3-0.8,0.9-0.6,1.7c0.2,0.7,0.7,2,1.9,1.7
			c1.1-0.2,2.3-1.3,3.1-3.1c-0.2-0.1-0.4-0.3-0.6-0.4C181.9,31.7,181.2,31.6,180.6,31.6 M186,42C185.9,42,185.9,42,186,42
			c-0.4,0-0.6-0.3-0.5-0.6c0.4-3.5-0.1-6.4-1.5-8.1c-0.9,1.9-2.3,3.1-3.7,3.3c-1.5,0.3-2.7-0.7-3.1-2.5c-0.3-1.1,0.1-2.1,1-2.8
			c1.3-1,3.4-1,5-0.1c0.1,0.1,0.3,0.2,0.4,0.3c0.4-1.2,0.5-2.6,0.4-4.2c-0.4-4.1-3.8-6.6-6.8-7.1c-0.7-0.1-1.3-0.2-1.9-0.1
			c0.3,0.5,0.5,1,0.7,1.5c1.6,4.1-0.1,5.8-0.9,6.4c-1.4,1-3.6,0.9-4.9-0.3c-1.3-1.1-1.5-3-0.5-4.9c0.9-1.7,2.3-2.9,4-3.4
			c-3.9-4.9-10.7-2.6-11.1-2.4c-0.3,0.1-0.6,0-0.7-0.3c-0.1-0.3,0-0.6,0.3-0.7c0.1,0,8.3-2.9,12.5,3.2c0.9-0.1,1.8-0.1,2.7,0.1
			c3.3,0.6,7.1,3.4,7.6,8.1c0.2,1.9-0.1,3.6-0.6,5.1c1.3,1.4,2.7,4.1,2.1,9.3C186.4,41.8,186.2,42,186,42"/>
		<path class="st9" d="M42.5,56.1c1.7,0.5,3.7,0.6,6.1,0.4c3.2-0.2,5.1-1.5,5.4-3.5c0.3-2.1-1.3-4.4-3.4-5.1
			c-2.2-0.7-4.3,0.4-5.9,3.2C43.5,52.9,42.8,54.5,42.5,56.1 M54.7,68.6c-4.5,0-9.7-1.7-12.1-5.3c-1-1.4-1.7-3.5-1.3-6.4
			c-1.8-0.6-3.2-1.6-4.2-2.9c-3.7-4.8-1.2-12.2-1.1-12.5c0.1-0.3,0.4-0.4,0.7-0.3c0.3,0.1,0.4,0.4,0.3,0.7c0,0.1-2.4,7.2,1,11.6
			c0.9,1.1,2.1,2,3.5,2.5c0.4-1.5,1-3.3,2.2-5.2c2.7-4.6,5.9-4.1,7.2-3.7c2.6,0.9,4.5,3.7,4.2,6.3c-0.2,1.2-1.1,4-6.3,4.4
			c-2.4,0.2-4.5,0-6.3-0.4c-0.3,2.1,0.1,4,1.2,5.5c2.6,3.9,8.9,5.3,13.4,4.7c0.3,0,0.6,0.2,0.6,0.4c0,0.3-0.2,0.6-0.4,0.6
			C56.3,68.5,55.5,68.6,54.7,68.6"/>
		<path class="st10" d="M125.8,38c-0.3,0-0.5-0.2-0.5-0.5v-7.1c0-0.3,0.2-0.5,0.5-0.5c0.3,0,0.5,0.2,0.5,0.5v7.1
			C126.4,37.8,126.1,38,125.8,38"/>
		<path class="st10" d="M125.8,46.9c-0.3,0-0.5-0.2-0.5-0.5v-0.6c0-0.3,0.2-0.5,0.5-0.5c0.3,0,0.5,0.2,0.5,0.5v0.6
			C126.4,46.6,126.1,46.9,125.8,46.9"/>
		<path class="st10" d="M132.5,42.9c-0.1,0-0.2,0-0.2-0.1c-0.3-0.1-0.4-0.5-0.2-0.7l8-15.5c0.1-0.3,0.5-0.4,0.7-0.2
			c0.3,0.1,0.4,0.5,0.2,0.7l-8,15.5C132.9,42.8,132.7,42.9,132.5,42.9"/>
		<path class="st10" d="M141,44.1c-0.1,0-0.3-0.1-0.4-0.2c-0.2-0.2-0.2-0.5,0-0.7l4.3-4.3c0.2-0.2,0.5-0.2,0.7,0
			c0.2,0.2,0.2,0.5,0,0.7l-4.4,4.3C141.3,44,141.1,44.1,141,44.1"/>
		<path class="st10" d="M140.5,54.7c-0.2,0-0.4-0.1-0.5-0.3c-0.1-0.3,0-0.6,0.3-0.7l8.4-3.5c0.3-0.1,0.6,0,0.7,0.3
			c0.1,0.3,0,0.6-0.3,0.7l-8.4,3.5C140.6,54.7,140.5,54.7,140.5,54.7"/>
		<path class="st10" d="M158.9,59L158.9,59L143,58.9c-0.3,0-0.5-0.2-0.5-0.5c0-0.3,0.2-0.5,0.5-0.5l15.9,0.1c0.3,0,0.5,0.2,0.5,0.5
			C159.4,58.7,159.2,59,158.9,59"/>
		<path class="st10" d="M117,40.6c-0.2,0-0.4-0.1-0.5-0.3l-6-12.3c-0.1-0.3,0-0.6,0.2-0.7c0.3-0.1,0.6,0,0.7,0.2l6,12.3
			c0.1,0.3,0,0.6-0.2,0.7C117.2,40.6,117.1,40.6,117,40.6"/>
		<path class="st10" d="M116.1,51c-0.1,0-0.3-0.1-0.4-0.2l-12-12.1c-0.2-0.2-0.2-0.5,0-0.7c0.2-0.2,0.5-0.2,0.7,0l12,12.1
			c0.2,0.2,0.2,0.5,0,0.7C116.4,51,116.3,51,116.1,51"/>
		<path class="st10" d="M111.1,54.7c-0.1,0-0.1,0-0.2,0l-12.3-5.5c-0.3-0.1-0.4-0.4-0.3-0.7c0.1-0.3,0.4-0.4,0.7-0.3l12.3,5.5
			c0.3,0.1,0.4,0.4,0.3,0.7C111.5,54.6,111.3,54.7,111.1,54.7"/>
		<path class="st10" d="M125.8,72c-0.3,0-0.5-0.2-0.5-0.5v-0.6c0-0.3,0.2-0.5,0.5-0.5c0.3,0,0.5,0.2,0.5,0.5v0.6
			C126.4,71.8,126.1,72,125.8,72"/>
		<path class="st10" d="M136.2,80.7c-0.2,0-0.4-0.1-0.5-0.3l-5.3-10.3c-0.1-0.3,0-0.6,0.2-0.7c0.3-0.1,0.6,0,0.7,0.2l5.3,10.3
			c0.1,0.3,0,0.6-0.2,0.7C136.3,80.6,136.2,80.7,136.2,80.7"/>
		<path class="st10" d="M153.4,84.8c-0.1,0-0.3,0-0.4-0.1l-18-17.5c-0.2-0.2-0.2-0.5,0-0.7c0.2-0.2,0.5-0.2,0.7,0l18,17.5
			c0.2,0.2,0.2,0.5,0,0.7C153.7,84.7,153.6,84.8,153.4,84.8"/>
		<path class="st10" d="M152.8,69c-0.1,0-0.1,0-0.2,0l-12.3-5.5c-0.3-0.1-0.4-0.4-0.3-0.7c0.1-0.3,0.4-0.4,0.7-0.3L153,68
			c0.3,0.1,0.4,0.4,0.3,0.7C153.2,68.9,153,69,152.8,69"/>
		<path class="st10" d="M160,72.4c-0.1,0-0.2,0-0.3-0.1l-1.8-1.1c-0.2-0.2-0.3-0.5-0.2-0.7c0.1-0.2,0.5-0.3,0.7-0.2l1.8,1.1
			c0.2,0.1,0.3,0.5,0.2,0.7C160.4,72.3,160.2,72.4,160,72.4"/>
		<path class="st10" d="M113,80.2c-0.1,0-0.2,0-0.2-0.1c-0.3-0.1-0.4-0.4-0.2-0.7l5.3-10.3c0.1-0.3,0.4-0.4,0.7-0.2
			c0.3,0.1,0.4,0.4,0.2,0.7L113.5,80C113.4,80.1,113.2,80.2,113,80.2"/>
		<path class="st10" d="M98.8,69c-0.2,0-0.4-0.1-0.5-0.3c-0.1-0.3,0-0.6,0.3-0.7l12.3-5.5c0.3-0.1,0.6,0,0.7,0.3
			c0.1,0.3,0,0.6-0.3,0.7L99,69C98.9,69,98.9,69,98.8,69"/>
		<path class="st10" d="M108.6,58.9h-6.1c-0.3,0-0.5-0.2-0.5-0.5s0.2-0.5,0.5-0.5h6.1c0.3,0,0.5,0.2,0.5,0.5S108.9,58.9,108.6,58.9"
			/>
		<path class="st11" d="M237.3,136.2c0,0,0.7-21.6-21.6-21.6c-15.5,0-57.6,0-81.8,0h-5.4h-7.1h-5.4c-24.2,0-66.3,0-81.8,0
			c-22.2,0-21.6,21.6-21.6,21.6v40.1h0v54.9h224.6v-90.4h0V136.2z"/>
		<path class="st12" d="M237.3,136.2c0,0,0.7-21.6-21.6-21.6c-15.5,0-57.6,0-81.8,0h-5.4h-7.1h-5.4c-24.2,0-66.3,0-81.8,0
			c-22.2,0-21.6,21.6-21.6,21.6v40.1h0v54.9h224.6v-90.4h0V136.2z"/>
		<path class="st13" d="M229.8,223.1h-94.9h-6h-7.8h-6H20.3c-24.7,0-19.8,16.7-19.8,16.7h93.7c0,0,0,0,0,0c0,0,14.3,0.2,19.2,5.4
			c2.3,2.6,4.1,6.4,4.1,11.6c0,13.3-19,11.4-19,19v3.7H125h26.6v-3.7c0-7.6-19-5.7-19-19c0-5.2,1.9-9,4.1-11.6
			c4.9-5.2,19.2-5.4,19.2-5.4c0,0,0,0,0,0h93.7C249.6,239.7,254.5,223.1,229.8,223.1"/>
		<path class="st14" d="M209,215.2c-11.5,0-17.4-7.5-21.3-12.5c-3.6-4.6-4.6-5.4-6.8-5.4c-2.1,0-3.1,0.8-6.7,5.4
			c-3.9,5-9.8,12.5-21.3,12.5c-11.5,0-17.4-7.5-21.3-12.5c-3.6-4.6-4.6-5.4-6.7-5.4c-2.1,0-3.1,0.8-6.7,5.4
			c-3.9,5-9.8,12.5-21.3,12.5c-11.5,0-17.4-7.5-21.3-12.5c-3.6-4.6-4.6-5.4-6.7-5.4c-2.1,0-3.1,0.8-6.7,5.4
			c-3.9,5-9.8,12.5-21.3,12.5c-11.5,0-17.4-7.5-21.3-12.5c-3.6-4.6-4.6-5.4-6.7-5.4v-18.5c11.5,0,17.4,7.5,21.3,12.5
			c3.6,4.6,4.6,5.4,6.7,5.4c2.1,0,3.1-0.8,6.7-5.4c3.9-5,9.8-12.5,21.3-12.5s17.4,7.5,21.3,12.5c3.6,4.6,4.6,5.4,6.7,5.4
			c2.1,0,3.1-0.8,6.7-5.4c3.9-5,9.8-12.5,21.3-12.5c11.5,0,17.4,7.5,21.3,12.5c3.6,4.6,4.6,5.4,6.7,5.4c2.1,0,3.1-0.8,6.7-5.4
			c3.9-5,9.8-12.5,21.3-12.5s17.4,7.5,21.3,12.5c3.6,4.6,4.6,5.4,6.8,5.4c2.1,0,3.1-0.8,6.7-5.4c3.9-5,9.8-12.5,21.3-12.5v18.5
			c-2.1,0-3.1,0.8-6.8,5.4C226.4,207.6,220.5,215.2,209,215.2"/>
		<path class="st14" d="M72.2,206.5c0,2-1.6,3.6-3.6,3.6c-2,0-3.6-1.6-3.6-3.6c0-2,1.6-3.6,3.6-3.6
			C70.6,202.9,72.2,204.5,72.2,206.5"/>
		<path class="st14" d="M100.1,187.2c0,2-1.6,3.6-3.6,3.6c-2,0-3.6-1.6-3.6-3.6c0-2,1.6-3.6,3.6-3.6
			C98.4,183.6,100.1,185.2,100.1,187.2"/>
		<path class="st14" d="M128.5,206.5c0,2-1.6,3.6-3.6,3.6c-2,0-3.6-1.6-3.6-3.6c0-2,1.6-3.6,3.6-3.6
			C126.8,202.9,128.5,204.5,128.5,206.5"/>
		<path class="st14" d="M184.9,206.5c0,2-1.6,3.6-3.6,3.6c-2,0-3.6-1.6-3.6-3.6c0-2,1.6-3.6,3.6-3.6
			C183.3,202.9,184.9,204.5,184.9,206.5"/>
		<path class="st14" d="M212.5,187.2c0,2-1.6,3.6-3.6,3.6c-2,0-3.6-1.6-3.6-3.6c0-2,1.6-3.6,3.6-3.6
			C210.9,183.6,212.5,185.2,212.5,187.2"/>
		<path class="st14" d="M44.1,187.2c0,2-1.6,3.6-3.6,3.6c-2,0-3.6-1.6-3.6-3.6c0-2,1.6-3.6,3.6-3.6
			C42.4,183.6,44.1,185.2,44.1,187.2"/>
		<path class="st11" d="M7.1,186.2c0,1.7,1.3,3,3,3c1.5,0,2.7-1,2.9-2.4c0,0,0,0,0,0c0,0,0-0.2,0-0.4c0-0.1,0-0.1,0-0.2
			c0-0.1,0-0.1,0-0.2c0-2.7,0-11.7,0-16.2c0-7.1,4.6-9.9,10.8-9.4c6.3,0.5,11.4,3.4,11.5,11c0.1,5.9,0.2,7.9,0.2,7.9c0,0,0,0,0,0
			c0.2,2.9,2.5,5.5,5.4,5.8c3,0.3,5.4-2.1,5.4-5.3c0-0.1,0-0.2,0-0.3c0-1.7,0.1-10.3,0.1-13c0-3.1-0.2-8.5,3.7-8.3
			c3.8,0.2,4.1,2.8,4.1,9.3c0,2,1.5,3.7,3.4,3.8c1.9,0.1,3.4-1.4,3.4-3.4c0,0,0-0.1,0-0.1h0c0,0,0-0.7,0-3.4c0-2.7,2-8.2,8.1-7.4
			c6.7,0.9,7.4,6.1,7.2,19.8c0,4,3,7.5,6.7,7.7c3.6,0.2,6.6-2.9,6.7-6.9c0,0,0,0,0,0c0,0,0.2-4.8,0.4-8.3c0.3-8.6,3.8-13.5,9.1-14.6
			c3.7-0.8,7.9,0.8,9.4,7.4c0,0,0,0,0,0c0.6,2.3,2.5,4,4.7,4c2.7,0,4.9-2.4,4.9-5.4c0-0.1,0-0.2,0-0.3c0-0.6,0-2.1,0-5.2
			c0-1.9,0.6-3.3,1.4-4.2l4.9-0.4c1.6,1.6,1.6,5.3,1.8,14.7c0,3,2.2,5.5,4.9,5.4c2.6,0,4.7-2.3,4.9-5.1c0,0,0,0,0,0
			c0-0.1,0-0.2,0-0.3c0,0,0-0.1,0-0.1c0-0.2,0-0.4,0-0.6c0-5.4,2.3-9.4,5.7-7.8c3.7,1.7,4.3,9.6,4.5,28.5c0,2.2,1.6,4,3.6,3.9
			c2-0.1,3.6-1.9,3.6-4.1c0-0.1,0-0.2,0-0.3c0,0,0,0,0,0c0,0-0.1-7.5,0.5-13.1c1.1-10.7,10.7-18.1,17.2-18.4
			c7.3-0.4,16.9,2.6,22.2,18.4c0,0,0,0,0,0c1.6,4.8,5.9,7.9,11,7.5c5.8-0.5,10.5-5.4,11.4-11.2c0,0,0,0,0,0c0,0,0.6-5.1,2.9-9
			c3.1-5.2,14-7.5,17.2,2.8c0.7,9.2,1.6,18.1,2.7,18.1c2.2,0,4-1.8,4-4c0-0.1,0-0.1,0-0.2v-38h0v-4.9c0,0,0.7-22.7-22.7-22.7h-86
			h-5.6h-7.4h-5.6h-86C6.3,109.7,7,132.4,7,132.4v54.5l0-39.2v11.7"/>
		<path class="st15" d="M7.1,186.2c0,1.7,1.3,3,3,3c1.5,0,2.7-1,2.9-2.4c0,0,0,0,0,0c0,0,0-0.2,0-0.4c0-0.1,0-0.1,0-0.2
			c0-0.1,0-0.1,0-0.2c0-2.7,0-11.7,0-16.2c0-7.1,4.6-9.9,10.8-9.4c6.3,0.5,11.4,3.4,11.5,11c0.1,5.9,0.2,7.9,0.2,7.9c0,0,0,0,0,0
			c0.2,2.9,2.5,5.5,5.4,5.8c3,0.3,5.4-2.1,5.4-5.3c0-0.1,0-0.2,0-0.3c0-1.7,0.1-10.3,0.1-13c0-3.1-0.2-8.5,3.7-8.3
			c3.8,0.2,4.1,2.8,4.1,9.3c0,2,1.5,3.7,3.4,3.8c1.9,0.1,3.4-1.4,3.4-3.4c0,0,0-0.1,0-0.1h0c0,0,0-0.7,0-3.4c0-2.7,2-8.2,8.1-7.4
			c6.7,0.9,7.4,6.1,7.2,19.8c0,4,3,7.5,6.7,7.7c3.6,0.2,6.6-2.9,6.7-6.9c0,0,0,0,0,0c0,0,0.2-4.8,0.4-8.3c0.3-8.6,3.8-13.5,9.1-14.6
			c3.7-0.8,7.9,0.8,9.4,7.4c0,0,0,0,0,0c0.6,2.3,2.5,4,4.7,4c2.7,0,4.9-2.4,4.9-5.4c0-0.1,0-0.2,0-0.3c0-0.6,0-2.1,0-5.2
			c0-1.9,0.6-3.3,1.4-4.2l4.9-0.4c1.6,1.6,1.6,5.3,1.8,14.7c0,3,2.2,5.5,4.9,5.4c2.6,0,4.7-2.3,4.9-5.1c0,0,0,0,0,0
			c0-0.1,0-0.2,0-0.3c0,0,0-0.1,0-0.1c0-0.2,0-0.4,0-0.6c0-5.4,2.3-9.4,5.7-7.8c3.7,1.7,4.3,9.6,4.5,28.5c0,2.2,1.6,4,3.6,3.9
			c2-0.1,3.6-1.9,3.6-4.1c0-0.1,0-0.2,0-0.3c0,0,0,0,0,0c0,0-0.1-7.5,0.5-13.1c1.1-10.7,10.7-18.1,17.2-18.4
			c7.3-0.4,16.9,2.6,22.2,18.4c0,0,0,0,0,0c1.6,4.8,5.9,7.9,11,7.5c5.8-0.5,10.5-5.4,11.4-11.2c0,0,0,0,0,0c0,0,0.6-5.1,2.9-9
			c3.1-5.2,14-7.5,17.2,2.8c0.7,9.2,1.6,18.1,2.7,18.1c2.2,0,4-1.8,4-4c0-0.1,0-0.1,0-0.2v-38h0v-4.9c0,0,0.7-22.7-22.7-22.7h-86
			h-5.6h-7.4h-5.6h-86C6.3,109.7,7,132.4,7,132.4v54.5l0-39.2v11.7"/>
	</g>
</g>
</svg>
