<?xml version="1.0" encoding="utf-8"?>
<!-- Generator: Adobe Illustrator 22.0.0, SVG Export Plug-In . SVG Version: 6.00 Build 0)  -->
<svg version="1.1" id="Layer_1" xmlns="http://www.w3.org/2000/svg" xmlns:xlink="http://www.w3.org/1999/xlink" x="0px" y="0px"
	 viewBox="0 0 35.6 35.8" style="enable-background:new 0 0 35.6 35.8;" xml:space="preserve">
<style type="text/css">
	.st0{fill:none;stroke:#6BC2B7;stroke-width:1.44;stroke-linecap:round;stroke-linejoin:round;stroke-miterlimit:22.9256;}
</style>
<path class="st0" d="M2.7,28.4c0.4,0.7,0.7,1.2,1.1,1.5c0.3,0.2,0.5,0.3,0.8,0.3c0.3,0,0.6-0.1,0.9-0.2c0.6-0.3,1.2-0.8,1.6-1.4
	c0.1-0.2,0.3-0.4,0.5-0.5c0.1-0.1,0.3-0.1,0.4-0.1c0.2,0,0.4,0,0.6,0.2c0.2,0.2,0.4,0.4,0.4,0.6c0.3,0.6,0.7,1,1,1.2
	c0.3,0.2,0.5,0.3,0.8,0.3c0.3,0,0.6-0.1,0.9-0.2c0.6-0.3,1.2-0.8,1.6-1.4c0.1-0.2,0.3-0.4,0.5-0.5c0.1-0.1,0.3-0.1,0.4-0.1
	c0.2,0,0.4,0,0.6,0.2c0.2,0.2,0.4,0.4,0.4,0.6c0.3,0.6,0.7,1,1,1.2c0.3,0.2,0.5,0.3,0.8,0.3c0.3,0,0.6-0.1,0.9-0.2
	c0.6-0.3,1.2-0.8,1.6-1.4c0.1-0.2,0.3-0.4,0.5-0.5c0.1-0.1,0.3-0.1,0.4-0.1c0.2,0,0.4,0,0.6,0.2c0.2,0.2,0.4,0.4,0.4,0.6
	c0.3,0.6,0.7,1,1,1.2c0.3,0.2,0.5,0.3,0.8,0.3c0.3,0,0.6-0.1,0.9-0.2c0.6-0.3,1.2-0.8,1.6-1.4c0.1-0.2,0.3-0.4,0.5-0.5
	c0.1-0.1,0.3-0.1,0.4-0.1c0.2,0,0.4,0,0.6,0.2c0.2,0.2,0.4,0.4,0.4,0.6c0.3,0.6,0.7,1,1,1.2c0.3,0.2,0.5,0.3,0.8,0.3
	c0.3,0,0.6-0.1,0.9-0.2c0.7-0.3,1.3-0.9,1.8-1.6"/>
<line class="st0" x1="34.3" y1="34.8" x2="0.9" y2="34.8"/>
<path class="st0" d="M2.7,34.3v-7.4c0-1.3,1.1-2.3,2.4-2.3c8.5,0,24.7,0,25.1,0c1.3,0,2.4,1,2.4,2.3v7.4"/>
<path class="st0" d="M9.7,14.4V7.8c0-1.3,1.1-2.3,2.4-2.3h11.1c1.3,0,2.4,1,2.4,2.3v6.6"/>
<path class="st0" d="M5.8,24.2V17c0-1.3,1.1-2.3,2.4-2.3c0.5,0,18.4,0,18.9,0c1.3,0,2.4,1,2.4,2.3v7.2"/>
<path class="st0" d="M5.9,19c0.4,0.7,0.7,1.2,1.1,1.5c0.3,0.2,0.5,0.3,0.8,0.3c0.3,0,0.6-0.1,0.9-0.2c0.6-0.3,1.2-0.8,1.6-1.4
	c0.1-0.2,0.3-0.4,0.5-0.5c0.1-0.1,0.3-0.1,0.4-0.1c0.2,0,0.4,0,0.6,0.2c0.2,0.2,0.4,0.4,0.4,0.6c0.3,0.6,0.7,1,1,1.2
	c0.3,0.2,0.5,0.3,0.8,0.3c0.3,0,0.6-0.1,0.9-0.2c0.6-0.3,1.2-0.8,1.6-1.4c0.1-0.2,0.3-0.4,0.5-0.5c0.1-0.1,0.3-0.1,0.4-0.1
	c0.2,0,0.4,0,0.6,0.2c0.2,0.2,0.4,0.4,0.4,0.6c0.3,0.6,0.7,1,1,1.2c0.3,0.2,0.5,0.3,0.8,0.3c0.3,0,0.6-0.1,0.9-0.2
	c0.6-0.3,1.2-0.8,1.6-1.4c0.1-0.2,0.3-0.4,0.5-0.5c0.1-0.1,0.3-0.1,0.4-0.1c0.2,0,0.4,0,0.6,0.2c0.2,0.2,0.4,0.4,0.4,0.6
	c0.3,0.6,0.7,1,1,1.2c0.3,0.2,0.5,0.3,0.8,0.3c0.3,0,0.6-0.1,0.9-0.2c0.6-0.3,1.2-0.8,1.6-1.4"/>
<path class="st0" d="M9.7,9.5c0.3,0.7,0.7,1.1,1.1,1.3c0.2,0.2,0.5,0.2,0.8,0.2c0.3,0,0.6-0.1,0.8-0.2c0.6-0.3,1.1-0.7,1.5-1.3
	c0.1-0.2,0.2-0.4,0.5-0.5C14.4,9,14.6,9,14.7,9c0.2,0,0.4,0,0.5,0.1c0.2,0.1,0.3,0.4,0.4,0.6c0.3,0.5,0.6,0.9,0.9,1.1
	c0.2,0.2,0.5,0.2,0.8,0.2c0.3,0,0.6-0.1,0.8-0.2c0.6-0.3,1.1-0.7,1.5-1.3c0.1-0.2,0.2-0.4,0.5-0.5C20.3,9,20.4,9,20.6,9
	c0.2,0,0.4,0,0.5,0.1c0.2,0.1,0.3,0.4,0.4,0.6c0.3,0.5,0.6,0.9,0.9,1.1c0.2,0.2,0.5,0.2,0.8,0.2c0.3,0,0.6-0.1,0.8-0.2
	c0.6-0.3,1.1-0.7,1.5-1.3"/>
<path class="st0" d="M17.6,0.9c-1.3,0-2.3,1-2.3,2.3c0,1.3,1,2.3,2.3,2.3c1.3,0,2.3-1,2.3-2.3C19.9,1.9,18.9,0.9,17.6,0.9L17.6,0.9z
	"/>
</svg>
